<svg xmlns="http://www.w3.org/2000/svg" height="24" width="24" viewBox="-11.82687 -19.71145 102.49954 118.2687"><path d="M66.2827 0c6.9372 0 12.5631 5.6247 12.5631 12.5643v53.7184c0 6.9372-5.6259 12.5631-12.5631 12.5631H12.5643C5.626 78.8458 0 73.22 0 66.2827V12.5643C0 5.6247 5.6259 0 12.5643 0z" fill="#fffc00"/><path d="M66.0063 52.9389c-.2324-.769-1.3444-1.3112-1.3444-1.3112-.1051-.0553-.1992-.1051-.2766-.1439-1.8534-.8962-3.4966-1.975-4.8797-3.1978-1.112-.9848-2.0636-2.0691-2.8271-3.2199-.935-1.4053-1.3721-2.5782-1.5602-3.2144-.1051-.415-.0885-.581 0-.7967.072-.1826.2877-.354.3873-.437.6252-.4427 1.632-1.0955 2.2517-1.4938.5367-.3486.9959-.6473 1.267-.8355.8686-.6085 1.466-1.2282 1.8146-1.8976.4537-.863.509-1.8147.155-2.7497-.4759-1.2614-1.6543-2.0138-3.1536-2.0138-.332 0-.675.0387-1.018.1106-.8575.1881-1.6708.4924-2.3513.758a.0707.0707 0 01-.0996-.072c.072-1.6874.155-3.9557-.0332-6.1078-.166-1.9475-.5698-3.5907-1.2227-5.0236-.6583-1.4384-1.5159-2.5007-2.1853-3.2697-.6363-.7303-1.7594-1.8091-3.4523-2.7773-2.379-1.361-5.09-2.0526-8.0554-2.0526-2.9599 0-5.6653.6916-8.0498 2.0526-1.7926 1.0235-2.9378 2.1798-3.4578 2.7773-.6695.769-1.527 1.8313-2.1854 3.2697-.6584 1.433-1.0567 3.0706-1.2227 5.0236-.188 2.1632-.1106 4.249-.0332 6.1079 0 .0553-.0498.094-.1051.0719-.6805-.2656-1.4938-.5699-2.3513-.758-.3375-.0719-.6805-.1106-1.018-.1106-1.4938 0-2.6722.7524-3.1536 2.0138-.354.935-.2987 1.8866.155 2.7497.354.6694.946 1.289 1.8146 1.8976.2656.1882.7303.487 1.267.8355.603.3928 1.5823 1.029 2.213 1.466.0774.0554.343.2546.426.4648.0885.2213.1051.3873-.011.8299-.1937.6418-.6308 1.8036-1.5492 3.1812-.7635 1.1563-1.715 2.2351-2.8271 3.22-1.3831 1.2226-3.0263 2.3015-4.8797 3.1977-.0885.0443-.1936.094-.3043.1605 0 0-1.1065.5643-1.3167 1.2946-.3098 1.0788.5145 2.0913 1.35 2.6335 1.372.8852 3.0428 1.361 4.011 1.621.271.072.5145.1383.7358.2047.1383.0443.4869.177.6363.3707.188.2434.2102.5422.2766.8797.1051.5698.343 1.2724 1.0456 1.7593.7746.5311 1.7539.5698 2.9987.6196 1.3001.0498 2.9156.1107 4.769.7248.8576.2822 1.6376.7635 2.534 1.3167 1.881 1.1563 4.2212 2.5948 8.2157 2.5948 4 0 6.3569-1.444 8.249-2.6058.8963-.5477 1.6653-1.0235 2.5063-1.3002 1.8533-.614 3.4688-.675 4.769-.7247 1.2448-.0498 2.224-.083 2.9986-.6197.7524-.52.9682-1.2946 1.0678-1.8755.0553-.2877.0885-.5477.2545-.758.1438-.1825.4647-.3098.6141-.3596.2268-.0719.4813-.1383.7635-.2157.9682-.26 2.1853-.5644 3.6625-1.3998 1.7815-1.0124 1.9032-2.2517 1.7151-2.8658z" fill="#fff"/><path d="M67.5444 52.3414c-.3929-1.0733-1.1453-1.6432-1.9973-2.119-.1604-.094-.3098-.1715-.4315-.2268-.2545-.1328-.5145-.26-.7746-.3928-2.6611-1.4108-4.7414-3.1923-6.1798-5.3002-.4869-.7137-.8244-1.3555-1.0623-1.881-.1217-.3541-.1161-.5533-.0276-.7359.0664-.1383.2434-.2821.343-.354a91.283 91.283 0 011.2503-.8133c.5699-.3707 1.0236-.664 1.3113-.8631 1.0954-.7635 1.8589-1.5768 2.3347-2.4841.675-1.278.758-2.7386.2379-4.1107-.7192-1.9032-2.5228-3.0871-4.7027-3.0871-.4536 0-.9128.0497-1.3665.1493-.1217.0277-.2379.0554-.354.083.022-1.2946-.0111-2.6777-.1273-4.0277-.4094-4.758-2.0747-7.2531-3.812-9.2393-.7247-.8299-1.9861-2.0415-3.8782-3.1259-2.639-1.5159-5.6266-2.2794-8.8853-2.2794-3.2476 0-6.2351.7635-8.8742 2.274-1.9032 1.0843-3.1646 2.3014-3.8838 3.1258-1.7372 1.9862-3.4025 4.4813-3.812 9.2393-.116 1.35-.1438 2.733-.1272 4.0277-.1161-.0277-.2379-.0553-.354-.083a6.4198 6.4198 0 00-1.3666-.1494c-2.1798 0-3.9834 1.184-4.7026 3.0872-.52 1.372-.4371 2.8326.2379 4.1106.4758.9074 1.2448 1.7207 2.3347 2.4842.2932.2047.7414.4979 1.3112.863.3098.1992.758.4924 1.2006.7856.0664.0443.3043.2213.3872.3873.0941.1881.0941.3928-.0442.769-.2324.5146-.5699 1.1453-1.0457 1.8424-1.4108 2.0636-3.4301 3.8119-6.0028 5.206-1.3665.7248-2.7828 1.2062-3.3803 2.8327-.4537 1.2283-.155 2.628.9903 3.8064.3762.4039.852.7635 1.4495 1.0955 1.4053.7745 2.6003 1.1563 3.5408 1.4163.166.0498.5478.1715.7137.3209.4205.3651.3596.9184.9184 1.7261.3375.5035.7248.8465 1.0457 1.0678 1.1673.8078 2.484.8575 3.8783.9129 1.2559.0498 2.6833.105 4.3098.6417.675.2213 1.3776.6529 2.1854 1.1508 1.9474 1.2006 4.6196 2.8382 9.0844 2.8382 4.4703 0 7.1535-1.6487 9.1176-2.8493.8077-.4924 1.5048-.9239 2.1577-1.1397 1.6265-.5366 3.054-.592 4.3098-.6417 1.3942-.0554 2.7054-.1051 3.8783-.9129a4.0756 4.0756 0 001.195-1.3001c.3984-.6805.3929-1.1619.769-1.4883.155-.1328.4925-.249.675-.3043.9461-.26 2.1577-.6418 3.5906-1.433.6363-.3485 1.1287-.7302 1.5215-1.1673l.0166-.0166c1.0678-1.1618 1.3389-2.5173.8963-3.7178zm-3.9669 2.13c-2.4232 1.3389-4.0332 1.195-5.2835 1.9972-1.0623.686-.4371 2.1633-1.2061 2.6944-.9516.6584-3.7566-.0443-7.3804 1.1507-2.9876.9904-4.8963 3.8286-10.2795 3.8286-5.3942 0-7.2476-2.8272-10.2794-3.8286-3.6238-1.195-6.4343-.4923-7.3804-1.1507-.769-.5311-.1438-2.0083-1.206-2.6944-1.2504-.8077-2.8604-.6639-5.2836-1.9972-1.5436-.852-.6695-1.3776-.155-1.6266 8.7746-4.2434 10.1688-10.805 10.2352-11.2974.0775-.5864.1605-1.0512-.4868-1.6542-.6252-.581-3.408-2.3016-4.1771-2.8382-1.278-.8907-1.8368-1.7815-1.4219-2.877.2877-.7579.9959-1.04 1.7428-1.04.2324 0 .4703.0276.697.0774 1.3998.3043 2.7608 1.007 3.5464 1.195.1107.0277.2047.0388.2877.0388.4205 0 .5643-.2103.5367-.6916-.0885-1.5325-.3098-4.52-.0664-7.314.332-3.8396 1.5712-5.7428 3.0429-7.4302.7081-.8077 4.0277-4.3154 10.3735-4.3154 6.3624 0 9.6653 3.5077 10.3735 4.3154 1.4716 1.682 2.711 3.5851 3.0429 7.4302.2434 2.794.0332 5.7815-.0664 7.314-.0332.5035.1217.6916.5366.6916.083 0 .1826-.011.2877-.0388.7856-.188 2.1466-.8907 3.5464-1.195a3.2825 3.2825 0 01.697-.0774c.747 0 1.4551.2877 1.7428 1.04.415 1.0955-.1494 1.9863-1.4218 2.877-.769.5366-3.552 2.2573-4.1771 2.8382-.6473.5975-.5643 1.0622-.4869 1.6542.0609.4924 1.4606 7.054 10.2352 11.2974.498.249 1.3776.7746-.166 1.6266z"/></svg>